<svg width="3" height="15" viewBox="0 0 3 15" fill="none" xmlns="http://www.w3.org/2000/svg">
<path d="M3.00073 2.47382C3.00073 3.30224 2.32916 3.97382 1.50073 3.97382C0.672305 3.97382 0.000732422 3.30224 0.000732422 2.47382C0.000732422 1.64539 0.672305 0.973816 1.50073 0.973816C2.32916 0.973816 3.00073 1.64539 3.00073 2.47382Z" fill="#007AFF"/>
<path d="M3.00073 7.97382C3.00073 8.80224 2.32916 9.47382 1.50073 9.47382C0.672305 9.47382 0.000732422 8.80224 0.000732422 7.97382C0.000732422 7.14539 0.672305 6.47382 1.50073 6.47382C2.32916 6.47382 3.00073 7.14539 3.00073 7.97382Z" fill="#007AFF"/>
<path d="M3.00073 13.4738C3.00073 14.3022 2.32916 14.9738 1.50073 14.9738C0.672305 14.9738 0.000732422 14.3022 0.000732422 13.4738C0.000732422 12.6454 0.672305 11.9738 1.50073 11.9738C2.32916 11.9738 3.00073 12.6454 3.00073 13.4738Z" fill="#007AFF"/>
</svg>
