<svg width="74" height="34" viewBox="0 0 74 34" fill="none" xmlns="http://www.w3.org/2000/svg">
<circle cx="17" cy="17" r="16" fill="white" stroke="#D9D9D9"/>
<path d="M16.4213 23V11H17.5787V23H16.4213ZM11 17.5832V16.4168H23V17.5832H11Z" fill="#888888"/>
<circle cx="57" cy="17" r="16" fill="white" stroke="#D9D9D9"/>
<path d="M57.0624 18.3125C57.6592 18.3125 58.2314 18.0755 58.6534 17.6534C59.0754 17.2314 59.3124 16.6593 59.3124 16.0624V13.2499C59.3124 12.4461 58.8835 11.7034 58.1875 11.3014C57.4913 10.8995 56.6336 10.8995 55.9374 11.3014C55.2413 11.7034 54.8124 12.4461 54.8124 13.2499V16.0624C54.8124 16.6592 55.0494 17.2314 55.4715 17.6534C55.8934 18.0754 56.4656 18.3125 57.0624 18.3125ZM55.9373 13.2499C55.9373 12.848 56.1518 12.4766 56.4999 12.2757C56.848 12.0746 57.2768 12.0746 57.6249 12.2757C57.973 12.4766 58.1875 12.848 58.1875 13.2499V16.0624C58.1875 16.4644 57.973 16.8358 57.6249 17.0367C57.2768 17.2377 56.8481 17.2377 56.4999 17.0367C56.1518 16.8358 55.9373 16.4644 55.9373 16.0624V13.2499Z" fill="#888888"/>
<path d="M56.4999 20.9057V23H57.625V20.9057C58.8624 20.7673 60.0055 20.1777 60.8356 19.2497C61.6659 18.3216 62.1248 17.1202 62.125 15.875V15.5001H61V15.875C61 17.2818 60.2496 18.5818 59.0312 19.2852C57.8129 19.9885 56.312 19.9885 55.0937 19.2852C53.8754 18.5818 53.1249 17.2819 53.1249 15.875V15.5001H52V15.875C52.0001 17.1203 52.4591 18.3217 53.2893 19.2497C54.1195 20.1777 55.2625 20.7673 56.4999 20.9057Z" fill="#888888"/>
</svg>
