<svg width="22" height="22" viewBox="0 0 22 22" fill="none" xmlns="http://www.w3.org/2000/svg">
<path fill-rule="evenodd" clip-rule="evenodd" d="M8.68028 4.93051L6.87416 1.87796C6.06982 0.518501 4.31571 0.0684999 2.95626 0.872851C2.71318 1.01668 2.49274 1.19572 2.30212 1.40414C0.945494 2.88751 0.338215 4.29987 0.537902 5.6391C0.94713 8.38365 2.87669 11.5185 6.30482 15.0775L6.60254 15.3716L6.89707 15.6697L6.90287 15.6654C10.4561 19.0979 13.5909 21.0274 16.3354 21.4366C17.6747 21.6363 19.087 21.0291 20.5704 19.6724C20.7788 19.4818 20.9579 19.2614 21.1017 19.0183C21.906 17.6588 21.456 15.9047 20.0966 15.1004L17.044 13.2943L16.8922 13.2117C16.1736 12.8535 15.3183 12.8774 14.6174 13.2847L13.6662 13.8374L13.5557 13.8947C13.0692 14.1181 12.4887 14.0186 12.104 13.6339L8.34067 9.87057L8.25696 9.77844C7.91634 9.36532 7.86384 8.77875 8.13719 8.30831L8.68987 7.35715C9.12622 6.60618 9.12255 5.67801 8.68028 4.93051ZM19.7606 18.7869C18.5056 19.9347 17.4296 20.3865 16.5124 20.2498C14.1553 19.8983 11.3405 18.2112 8.08688 15.137L7.52665 14.5995L7.14818 14.2238C3.88348 10.834 2.08853 7.90168 1.72478 5.46213C1.58803 4.54499 2.03988 3.46898 3.18764 2.214C3.29828 2.09302 3.42623 1.9891 3.56732 1.90562C4.31255 1.46468 5.26211 1.67317 5.75861 2.36242L5.8414 2.48902L7.64751 5.54157C7.86854 5.91513 7.87037 6.37898 7.6523 6.75427L7.09963 7.70543C6.57511 8.60813 6.66991 9.73992 7.33109 10.5418L7.45251 10.6775L11.2555 14.4824C11.9937 15.2206 13.112 15.4189 14.0565 14.9852L14.2188 14.9026L15.2203 14.3222C15.5694 14.1194 15.9968 14.1062 16.3569 14.2857L16.4705 14.3483L19.4855 16.1332C20.2746 16.6 20.5358 17.6182 20.0689 18.4072C19.9855 18.5483 19.8815 18.6763 19.7606 18.7869Z" fill="#007AFF"/>
</svg>
