<svg width="25" height="16" viewBox="0 0 25 16" fill="none" xmlns="http://www.w3.org/2000/svg">
<path fill-rule="evenodd" clip-rule="evenodd" d="M17.0007 4.22382C17.0007 2.01468 15.2099 0.223816 13.0007 0.223816H4.00073C1.79159 0.223816 0.000732422 2.01468 0.000732422 4.22382V11.7238C0.000732422 13.933 1.79159 15.7238 4.00073 15.7238H13.0007C15.2099 15.7238 17.0007 13.933 17.0007 11.7238V4.22382ZM4.00073 1.42382H13.0007C14.5471 1.42382 15.8007 2.67742 15.8007 4.22382V11.7238C15.8007 13.2702 14.5471 14.5238 13.0007 14.5238H4.00073C2.45434 14.5238 1.20073 13.2702 1.20073 11.7238V4.22382C1.20073 2.67742 2.45434 1.42382 4.00073 1.42382ZM24.2934 2.14497C24.4278 2.31978 24.5007 2.53413 24.5007 2.75468V12.9343C24.5007 13.4865 24.053 13.9343 23.5007 13.9343C23.3157 13.9343 23.1342 13.8829 22.9766 13.7859L18.9525 11.3095C18.361 10.9455 18.0007 10.3007 18.0007 9.60623V6.70862C18.0007 6.08768 18.2891 5.50196 18.7813 5.12337L22.891 1.96205C23.3288 1.62532 23.9566 1.70721 24.2934 2.14497ZM19.513 6.07452L23.3007 3.16085V12.5763L19.5815 10.2876C19.3449 10.142 19.2007 9.88403 19.2007 9.60623V6.70862C19.2007 6.46024 19.3161 6.22596 19.513 6.07452Z" fill="#007AFF"/>
</svg>
